<mxfile host="app.diagrams.net" agent="Mozilla/5.0 (Windows NT 10.0; Win64; x64) AppleWebKit/537.36 (KHTML, like Gecko) Chrome/128.0.0.0 Safari/537.36" version="24.7.13">
  <diagram name="Page-1" id="oo597pJgYp1TrV0M0NB_">
    <mxGraphModel dx="1434" dy="752" grid="1" gridSize="10" guides="1" tooltips="1" connect="1" arrows="1" fold="1" page="1" pageScale="1" pageWidth="850" pageHeight="1100" math="0" shadow="0">
      <root>
        <mxCell id="0" />
        <mxCell id="1" parent="0" />
        <mxCell id="KMuXkZQok5yhQ_NeZ2Zq-11" style="edgeStyle=orthogonalEdgeStyle;rounded=0;orthogonalLoop=1;jettySize=auto;html=1;exitX=0.75;exitY=1;exitDx=0;exitDy=0;entryX=0.75;entryY=0;entryDx=0;entryDy=0;" edge="1" parent="1" source="KMuXkZQok5yhQ_NeZ2Zq-1" target="KMuXkZQok5yhQ_NeZ2Zq-4">
          <mxGeometry relative="1" as="geometry" />
        </mxCell>
        <mxCell id="KMuXkZQok5yhQ_NeZ2Zq-1" value="Backend" style="whiteSpace=wrap;html=1;" vertex="1" parent="1">
          <mxGeometry x="130" y="180" width="120" height="60" as="geometry" />
        </mxCell>
        <mxCell id="KMuXkZQok5yhQ_NeZ2Zq-28" style="edgeStyle=orthogonalEdgeStyle;rounded=0;orthogonalLoop=1;jettySize=auto;html=1;exitX=0.75;exitY=1;exitDx=0;exitDy=0;entryX=0.75;entryY=0;entryDx=0;entryDy=0;" edge="1" parent="1" source="KMuXkZQok5yhQ_NeZ2Zq-3" target="KMuXkZQok5yhQ_NeZ2Zq-5">
          <mxGeometry relative="1" as="geometry" />
        </mxCell>
        <mxCell id="KMuXkZQok5yhQ_NeZ2Zq-3" value="Backend" style="whiteSpace=wrap;html=1;" vertex="1" parent="1">
          <mxGeometry x="630" y="180" width="120" height="60" as="geometry" />
        </mxCell>
        <mxCell id="KMuXkZQok5yhQ_NeZ2Zq-8" style="edgeStyle=orthogonalEdgeStyle;rounded=0;orthogonalLoop=1;jettySize=auto;html=1;exitX=1;exitY=0.367;exitDx=0;exitDy=0;entryX=0.017;entryY=0.367;entryDx=0;entryDy=0;exitPerimeter=0;entryPerimeter=0;" edge="1" parent="1" source="KMuXkZQok5yhQ_NeZ2Zq-4" target="KMuXkZQok5yhQ_NeZ2Zq-5">
          <mxGeometry relative="1" as="geometry" />
        </mxCell>
        <mxCell id="KMuXkZQok5yhQ_NeZ2Zq-15" style="rounded=0;orthogonalLoop=1;jettySize=auto;html=1;exitX=1;exitY=1;exitDx=0;exitDy=0;entryX=0;entryY=0;entryDx=0;entryDy=0;startArrow=classic;startFill=1;" edge="1" parent="1" source="KMuXkZQok5yhQ_NeZ2Zq-4" target="KMuXkZQok5yhQ_NeZ2Zq-6">
          <mxGeometry relative="1" as="geometry" />
        </mxCell>
        <mxCell id="KMuXkZQok5yhQ_NeZ2Zq-4" value="&lt;span id=&quot;selected_text&quot;&gt;&lt;/span&gt;&lt;span id=&quot;selected_text&quot;&gt;&lt;/span&gt;WSO2&lt;div&gt;id: US&lt;/div&gt;" style="whiteSpace=wrap;html=1;" vertex="1" parent="1">
          <mxGeometry x="130" y="350" width="120" height="60" as="geometry" />
        </mxCell>
        <mxCell id="KMuXkZQok5yhQ_NeZ2Zq-19" style="edgeStyle=orthogonalEdgeStyle;rounded=0;orthogonalLoop=1;jettySize=auto;html=1;exitX=0.008;exitY=0.617;exitDx=0;exitDy=0;entryX=0.992;entryY=0.617;entryDx=0;entryDy=0;exitPerimeter=0;entryPerimeter=0;" edge="1" parent="1" source="KMuXkZQok5yhQ_NeZ2Zq-5" target="KMuXkZQok5yhQ_NeZ2Zq-4">
          <mxGeometry relative="1" as="geometry" />
        </mxCell>
        <mxCell id="KMuXkZQok5yhQ_NeZ2Zq-22" style="rounded=0;orthogonalLoop=1;jettySize=auto;html=1;exitX=0;exitY=1;exitDx=0;exitDy=0;entryX=1;entryY=0;entryDx=0;entryDy=0;startArrow=classic;startFill=1;" edge="1" parent="1" source="KMuXkZQok5yhQ_NeZ2Zq-5" target="KMuXkZQok5yhQ_NeZ2Zq-6">
          <mxGeometry relative="1" as="geometry" />
        </mxCell>
        <mxCell id="KMuXkZQok5yhQ_NeZ2Zq-26" style="edgeStyle=orthogonalEdgeStyle;rounded=0;orthogonalLoop=1;jettySize=auto;html=1;exitX=0.25;exitY=0;exitDx=0;exitDy=0;entryX=0.25;entryY=1;entryDx=0;entryDy=0;" edge="1" parent="1" source="KMuXkZQok5yhQ_NeZ2Zq-5" target="KMuXkZQok5yhQ_NeZ2Zq-3">
          <mxGeometry relative="1" as="geometry" />
        </mxCell>
        <mxCell id="KMuXkZQok5yhQ_NeZ2Zq-5" value="&lt;span id=&quot;selected_text&quot;&gt;&lt;/span&gt;&lt;span id=&quot;selected_text&quot;&gt;&lt;/span&gt;&lt;span id=&quot;selected_text&quot;&gt;&lt;/span&gt;&lt;span id=&quot;selected_text&quot;&gt;&lt;/span&gt;&lt;span id=&quot;selected_text&quot;&gt;&lt;/span&gt;&lt;span id=&quot;selected_text&quot;&gt;&lt;/span&gt;WSO2&lt;div&gt;id: BR&lt;/div&gt;" style="whiteSpace=wrap;html=1;" vertex="1" parent="1">
          <mxGeometry x="630" y="350" width="120" height="60" as="geometry" />
        </mxCell>
        <mxCell id="KMuXkZQok5yhQ_NeZ2Zq-6" value="Centralized&lt;br&gt;Public Key&lt;br&gt;Manager Service" style="whiteSpace=wrap;html=1;" vertex="1" parent="1">
          <mxGeometry x="380" y="620" width="120" height="60" as="geometry" />
        </mxCell>
        <mxCell id="KMuXkZQok5yhQ_NeZ2Zq-10" value="&lt;span id=&quot;selected_text&quot;&gt;&lt;/span&gt;&lt;span id=&quot;selected_text&quot;&gt;&lt;/span&gt;&lt;span id=&quot;selected_text&quot;&gt;&lt;/span&gt;1. Request with&lt;br&gt;&amp;nbsp;Plain data" style="text;html=1;align=center;verticalAlign=middle;resizable=0;points=[];autosize=1;strokeColor=none;fillColor=none;" vertex="1" parent="1">
          <mxGeometry x="215" y="280" width="110" height="40" as="geometry" />
        </mxCell>
        <mxCell id="KMuXkZQok5yhQ_NeZ2Zq-12" style="edgeStyle=orthogonalEdgeStyle;rounded=0;orthogonalLoop=1;jettySize=auto;html=1;exitX=0;exitY=0.5;exitDx=0;exitDy=0;entryX=0.25;entryY=1;entryDx=0;entryDy=0;curved=1;" edge="1" parent="1" source="KMuXkZQok5yhQ_NeZ2Zq-4" target="KMuXkZQok5yhQ_NeZ2Zq-4">
          <mxGeometry relative="1" as="geometry" />
        </mxCell>
        <mxCell id="KMuXkZQok5yhQ_NeZ2Zq-13" value="&lt;span id=&quot;selected_text&quot;&gt;&lt;/span&gt;&lt;span id=&quot;selected_text&quot;&gt;&lt;/span&gt;&lt;span id=&quot;selected_text&quot;&gt;&lt;/span&gt;&lt;span id=&quot;selected_text&quot;&gt;&lt;/span&gt;&lt;span id=&quot;selected_text&quot;&gt;&lt;/span&gt;3. Encrypt data&lt;br&gt;and convert into text/plain" style="text;html=1;align=center;verticalAlign=middle;resizable=0;points=[];autosize=1;strokeColor=none;fillColor=none;" vertex="1" parent="1">
          <mxGeometry x="50" y="430" width="160" height="40" as="geometry" />
        </mxCell>
        <mxCell id="KMuXkZQok5yhQ_NeZ2Zq-14" value="&lt;span id=&quot;selected_text&quot;&gt;&lt;/span&gt;4. Send request with encrypted data (id of sender included)" style="text;html=1;align=center;verticalAlign=middle;resizable=0;points=[];autosize=1;strokeColor=none;fillColor=none;" vertex="1" parent="1">
          <mxGeometry x="270" y="340" width="340" height="30" as="geometry" />
        </mxCell>
        <mxCell id="KMuXkZQok5yhQ_NeZ2Zq-16" value="&lt;span id=&quot;selected_text&quot;&gt;&lt;/span&gt;&lt;span id=&quot;selected_text&quot;&gt;&lt;/span&gt;&lt;span id=&quot;selected_text&quot;&gt;&lt;/span&gt;&lt;span id=&quot;selected_text&quot;&gt;&lt;/span&gt;&lt;span id=&quot;selected_text&quot;&gt;&lt;/span&gt;&lt;span id=&quot;selected_text&quot;&gt;&lt;/span&gt;&lt;span id=&quot;selected_text&quot;&gt;&lt;/span&gt;&lt;span id=&quot;selected_text&quot;&gt;&lt;/span&gt;&lt;span id=&quot;selected_text&quot;&gt;&lt;/span&gt;&lt;span id=&quot;selected_text&quot;&gt;&lt;/span&gt;&lt;span id=&quot;selected_text&quot;&gt;&lt;/span&gt;&lt;span id=&quot;selected_text&quot;&gt;&lt;/span&gt;&lt;span id=&quot;selected_text&quot;&gt;&lt;/span&gt;&lt;span id=&quot;selected_text&quot;&gt;&lt;/span&gt;&lt;span id=&quot;selected_text&quot;&gt;&lt;/span&gt;&lt;span id=&quot;selected_text&quot;&gt;&lt;/span&gt;&lt;span id=&quot;selected_text&quot;&gt;&lt;/span&gt;&lt;span id=&quot;selected_text&quot;&gt;&lt;/span&gt;&lt;span id=&quot;selected_text&quot;&gt;&lt;/span&gt;&lt;span id=&quot;selected_text&quot;&gt;&lt;/span&gt;&lt;span id=&quot;selected_text&quot;&gt;&lt;/span&gt;2. Get receiver&#39;s public key" style="text;html=1;align=center;verticalAlign=middle;resizable=0;points=[];autosize=1;strokeColor=none;fillColor=none;rotation=58;" vertex="1" parent="1">
          <mxGeometry x="240" y="490" width="170" height="30" as="geometry" />
        </mxCell>
        <mxCell id="KMuXkZQok5yhQ_NeZ2Zq-20" value="&lt;span id=&quot;selected_text&quot;&gt;&lt;/span&gt;&lt;span id=&quot;selected_text&quot;&gt;&lt;/span&gt;&lt;span id=&quot;selected_text&quot;&gt;&lt;/span&gt;&lt;span id=&quot;selected_text&quot;&gt;&lt;/span&gt;&lt;span id=&quot;selected_text&quot;&gt;&lt;/span&gt;&lt;span id=&quot;selected_text&quot;&gt;&lt;/span&gt;&lt;span id=&quot;selected_text&quot;&gt;&lt;/span&gt;&lt;span id=&quot;selected_text&quot;&gt;&lt;/span&gt;&lt;span id=&quot;selected_text&quot;&gt;&lt;/span&gt;&lt;span id=&quot;selected_text&quot;&gt;&lt;/span&gt;&lt;span id=&quot;selected_text&quot;&gt;&lt;/span&gt;&lt;span id=&quot;selected_text&quot;&gt;&lt;/span&gt;&lt;span id=&quot;selected_text&quot;&gt;&lt;/span&gt;&lt;span id=&quot;selected_text&quot;&gt;&lt;/span&gt;&lt;span id=&quot;selected_text&quot;&gt;&lt;/span&gt;&lt;span id=&quot;selected_text&quot;&gt;&lt;/span&gt;&lt;span id=&quot;selected_text&quot;&gt;&lt;/span&gt;5. Send &lt;span id=&quot;selected_text&quot;&gt;&lt;/span&gt;response with encrypted data (id of &lt;span id=&quot;selected_text&quot;&gt;&lt;/span&gt;sender included)" style="text;html=1;align=center;verticalAlign=middle;resizable=0;points=[];autosize=1;strokeColor=none;fillColor=none;" vertex="1" parent="1">
          <mxGeometry x="265" y="390" width="350" height="30" as="geometry" />
        </mxCell>
        <mxCell id="KMuXkZQok5yhQ_NeZ2Zq-21" value="&lt;span id=&quot;selected_text&quot;&gt;&lt;/span&gt;&lt;span id=&quot;selected_text&quot;&gt;&lt;/span&gt;&lt;span id=&quot;selected_text&quot;&gt;&lt;/span&gt;&lt;span id=&quot;selected_text&quot;&gt;&lt;/span&gt;&lt;span id=&quot;selected_text&quot;&gt;&lt;/span&gt;&lt;span id=&quot;selected_text&quot;&gt;&lt;/span&gt;&lt;span id=&quot;selected_text&quot;&gt;&lt;/span&gt;Stores id and the id&#39;s corresponding public key" style="text;html=1;align=center;verticalAlign=middle;resizable=0;points=[];autosize=1;strokeColor=none;fillColor=none;fontStyle=1" vertex="1" parent="1">
          <mxGeometry x="305" y="680" width="270" height="30" as="geometry" />
        </mxCell>
        <mxCell id="KMuXkZQok5yhQ_NeZ2Zq-23" value="5. Get Sender&#39;s public key" style="text;html=1;align=center;verticalAlign=middle;resizable=0;points=[];autosize=1;strokeColor=none;fillColor=none;rotation=-58;" vertex="1" parent="1">
          <mxGeometry x="470" y="500" width="160" height="30" as="geometry" />
        </mxCell>
        <mxCell id="KMuXkZQok5yhQ_NeZ2Zq-24" style="edgeStyle=orthogonalEdgeStyle;rounded=0;orthogonalLoop=1;jettySize=auto;html=1;exitX=1;exitY=0.5;exitDx=0;exitDy=0;entryX=0.75;entryY=1;entryDx=0;entryDy=0;curved=1;" edge="1" parent="1" source="KMuXkZQok5yhQ_NeZ2Zq-5" target="KMuXkZQok5yhQ_NeZ2Zq-5">
          <mxGeometry relative="1" as="geometry" />
        </mxCell>
        <mxCell id="KMuXkZQok5yhQ_NeZ2Zq-25" value="&lt;span id=&quot;selected_text&quot;&gt;&lt;/span&gt;&lt;span id=&quot;selected_text&quot;&gt;&lt;/span&gt;&lt;span id=&quot;selected_text&quot;&gt;&lt;/span&gt;&lt;span id=&quot;selected_text&quot;&gt;&lt;/span&gt;6. &lt;span id=&quot;selected_text&quot;&gt;&lt;/span&gt;Decrypt data&lt;br&gt;&lt;div&gt;9. Encrypt data&lt;/div&gt;" style="text;html=1;align=center;verticalAlign=middle;resizable=0;points=[];autosize=1;strokeColor=none;fillColor=none;" vertex="1" parent="1">
          <mxGeometry x="715" y="430" width="100" height="40" as="geometry" />
        </mxCell>
        <mxCell id="KMuXkZQok5yhQ_NeZ2Zq-27" value="&lt;span id=&quot;selected_text&quot;&gt;&lt;/span&gt;&lt;span id=&quot;selected_text&quot;&gt;&lt;/span&gt;&lt;span id=&quot;selected_text&quot;&gt;&lt;/span&gt;&lt;span id=&quot;selected_text&quot;&gt;&lt;/span&gt;&lt;span id=&quot;selected_text&quot;&gt;&lt;/span&gt;&lt;span id=&quot;selected_text&quot;&gt;&lt;/span&gt;&lt;span id=&quot;selected_text&quot;&gt;&lt;/span&gt;&lt;span id=&quot;selected_text&quot;&gt;&lt;/span&gt;7. Request with&lt;br&gt;&lt;span id=&quot;selected_text&quot;&gt;&lt;/span&gt;decrypted (plain) data&lt;br&gt;(included id US)" style="text;html=1;align=center;verticalAlign=middle;resizable=0;points=[];autosize=1;strokeColor=none;fillColor=none;" vertex="1" parent="1">
          <mxGeometry x="520" y="270" width="140" height="60" as="geometry" />
        </mxCell>
        <mxCell id="KMuXkZQok5yhQ_NeZ2Zq-29" value="8. &lt;span id=&quot;selected_text&quot;&gt;&lt;/span&gt;Response with&lt;br&gt;&amp;nbsp;Plain data" style="text;html=1;align=center;verticalAlign=middle;resizable=0;points=[];autosize=1;strokeColor=none;fillColor=none;" vertex="1" parent="1">
          <mxGeometry x="715" y="280" width="120" height="40" as="geometry" />
        </mxCell>
        <mxCell id="KMuXkZQok5yhQ_NeZ2Zq-31" value="9. Get Receiver&#39;s public key" style="text;html=1;align=center;verticalAlign=middle;resizable=0;points=[];autosize=1;strokeColor=none;fillColor=none;rotation=-58;" vertex="1" parent="1">
          <mxGeometry x="490" y="510" width="170" height="30" as="geometry" />
        </mxCell>
      </root>
    </mxGraphModel>
  </diagram>
</mxfile>
